<?xml version="1.0" encoding="utf-8"?>
<!-- Generator: Adobe Illustrator 22.0.0, SVG Export Plug-In . SVG Version: 6.00 Build 0)  -->
<svg version="1.1" id="Layer_1" xmlns="http://www.w3.org/2000/svg" xmlns:xlink="http://www.w3.org/1999/xlink" x="0px" y="0px"
	 viewBox="0 0 158.6 40" style="enable-background:new 0 0 158.6 40;" xml:space="preserve">
<style type="text/css">
	.st0{fill:#E6E6E6;}
	.st1{fill:#CCCCCC;}
	.st2{fill:#FFFFFF;}
</style>
<g id="XMLID_529_">
	<g id="XMLID_6_">
		<g id="XMLID_3_">
			<rect id="XMLID_315_" x="21.9" y="30.8" class="st0" width="5.8" height="6.1"/>
			<rect id="XMLID_314_" x="59.9" y="30.8" class="st0" width="5.8" height="6.1"/>
			<rect id="XMLID_313_" x="37.1" y="30.8" class="st0" width="5.8" height="6.1"/>
			<rect id="XMLID_312_" x="29.5" y="30.8" class="st1" width="5.8" height="6.1"/>
			<rect id="XMLID_311_" x="44.7" y="30.8" class="st1" width="5.8" height="6.1"/>
			<rect id="XMLID_308_" x="14.3" y="30.8" class="st2" width="5.8" height="6.1"/>
			<rect id="XMLID_307_" x="52.3" y="30.8" class="st2" width="5.8" height="6.1"/>
			<rect id="XMLID_306_" x="67.5" y="30.8" class="st2" width="5.8" height="6.1"/>
			<rect id="XMLID_305_" x="75.1" y="30.8" class="st1" width="5.8" height="6.1"/>
			<rect id="XMLID_304_" x="82.7" y="30.8" class="st2" width="5.8" height="6.1"/>
			<path id="XMLID_300_" class="st2" d="M20.7,10.6c3.9,0,5.8,1.9,5.8,5.8s-1.9,5.8-5.8,5.8h-2.6v5.2h-3.9V10.6H20.7z M18.2,18.3
				h2.6c1.3,0,1.9-0.7,1.9-1.9s-0.7-1.9-1.9-1.9h-2.6V18.3z"/>
			<path id="XMLID_298_" class="st2" d="M31.7,10.6v16.8h-3.9V10.6H31.7z"/>
			<path id="XMLID_296_" class="st2" d="M33.4,27.4L33,23.5h6.5c0.9,0,1.3-0.4,1.3-1.3c0-0.9-0.4-1.3-1.3-1.3h-1.3
				c-3.4,0-5.2-1.7-5.2-5.2c0-3.4,1.7-5.2,5.2-5.2h5.4l0.4,3.9h-5.8c-0.9,0-1.3,0.4-1.3,1.3s0.4,1.3,1.3,1.3h1.3
				c3.4,0,5.2,1.7,5.2,5.2c0,3.4-1.7,5.2-5.2,5.2H33.4z"/>
			<path id="XMLID_294_" class="st2" d="M54.3,23.5h1.9l-0.4,3.9h-1.5c-5.6,0-8.4-2.8-8.4-8.4c0-5.6,2.8-8.4,8.4-8.4h1.5l0.4,3.9
				h-1.9c-3,0-4.5,1.5-4.5,4.5S51.3,23.5,54.3,23.5z"/>
			<path id="XMLID_292_" class="st2" d="M61.4,10.6v16.8h-3.9V10.6H61.4z"/>
			<path id="XMLID_290_" class="st2" d="M71.1,17.1c0-1.7-0.7-2.6-2.2-2.6c-1.5,0-2.3,0.9-2.3,2.6v10.3h-3.9V17.1
				c0-4.3,2.1-6.5,6.2-6.5c4,0,6.1,2.1,6.1,6.5v10.3h-3.9L71.1,17.1L71.1,17.1z"/>
			<path id="XMLID_279_" class="st2" d="M88.5,17.1v10.3h-3.9v-3.9h-4.5v3.9h-3.9V17.1c0-4.3,2.1-6.5,6.2-6.5
				C86.5,10.6,88.5,12.8,88.5,17.1z M82.4,14.5c-1.5,0-2.3,0.9-2.3,2.6v2.6h4.5v-2.6C84.6,15.3,83.9,14.5,82.4,14.5z"/>
			<path id="XMLID_24_" class="st0" d="M90.2,27.4V10.6h3.9v12.9h6.5l-0.4,3.9L90.2,27.4L90.2,27.4z"/>
			<path id="XMLID_22_" class="st0" d="M105.7,10.6v16.8h-3.9V10.6H105.7z"/>
			<path id="XMLID_20_" class="st0" d="M107.3,27.4l-0.4-3.9h6.5c0.9,0,1.3-0.4,1.3-1.3c0-0.9-0.4-1.3-1.3-1.3H112
				c-3.4,0-5.2-1.7-5.2-5.2c0-3.4,1.7-5.2,5.2-5.2h5.4l0.4,3.9h-5.8c-0.9,0-1.3,0.4-1.3,1.3s0.4,1.3,1.3,1.3h1.3
				c3.4,0,5.2,1.7,5.2,5.2c0,3.4-1.7,5.2-5.2,5.2H107.3z"/>
			<path id="XMLID_18_" class="st0" d="M131.3,10.6v3.9h-3.9v12.9h-3.9V14.5h-3.9v-3.9L131.3,10.6L131.3,10.6z"/>
			<path id="XMLID_15_" class="st0" d="M144.6,17.1v10.3h-3.9v-3.9h-4.5v3.9h-3.9V17.1c0-4.3,2.1-6.5,6.2-6.5
				C142.6,10.6,144.6,12.8,144.6,17.1z M138.6,14.5c-1.5,0-2.3,0.9-2.3,2.6v2.6h4.5v-2.6C140.8,15.3,140,14.5,138.6,14.5z"/>
			<polygon id="XMLID_4_" class="st0" points="5,2.9 5,34.9 12.5,34.9 12.5,32.8 7.1,32.8 7.1,4.9 151.9,4.9 151.9,32.8 90.2,32.8 
				90.2,34.9 154,34.9 154,2.9 			"/>
		</g>
	</g>
</g>
</svg>
