<?xml version="1.0" encoding="utf-8"?>
<!-- Generator: Adobe Illustrator 22.0.0, SVG Export Plug-In . SVG Version: 6.00 Build 0)  -->
<svg version="1.1" id="Layer_1" xmlns="http://www.w3.org/2000/svg" xmlns:xlink="http://www.w3.org/1999/xlink" x="0px" y="0px"
	 viewBox="0 0 170 170" style="enable-background:new 0 0 170 170;" xml:space="preserve">
<style type="text/css">
	.st0{fill:#6269C4;}
</style>
<title>iconos</title>
<g>
	<path class="st0" d="M155.8,42.9v-6.2H53.5v-9.3c0-2.6-2.1-4.7-4.7-4.7c-2.6,0-4.7,2.1-4.7,4.7v9.3H25.6v-9.3
		c0-2.6-2.1-4.7-4.7-4.7s-4.7,2.1-4.7,4.7v43.4c0,0,0,0,0,0v9.3c2.5,0,4,0.9,6.2,2.4c2.7,1.7,6,3.8,11.2,3.8s8.5-2.1,11.2-3.8
		c2.2-1.4,3.7-2.4,6.2-2.4s4,0.9,6.2,2.4c2.7,1.7,6,3.8,11.2,3.8s8.5-2.1,11.2-3.8c2.2-1.4,3.7-2.4,6.2-2.4c2.5,0,4,0.9,6.2,2.4
		c2.7,1.7,6,3.8,11.2,3.8c5.2,0,8.5-2.1,11.2-3.8c2.2-1.4,3.7-2.4,6.2-2.4c2.5,0,4,0.9,6.2,2.4c2.7,1.7,6,3.8,11.2,3.8
		c5.2,0,8.5-2.1,11.2-3.8c2.2-1.4,4-2.4,6.5-2.4v-9.3c-5.2,0-8.9,2.1-11.5,3.8c-2.2,1.4-3.7,2.4-6.2,2.4c-2.5,0-4-0.9-6.2-2.4
		c-2.7-1.7-6-3.8-11.2-3.8c-5.2,0-8.5,2.1-11.2,3.8c-2.2,1.4-3.7,2.4-6.2,2.4c-2.5,0-4-0.9-6.2-2.4c-2.7-1.7-6-3.8-11.2-3.8
		s-8.5,2.1-11.2,3.8C72.5,76,71,77,68.5,77c-2.5,0-4-0.9-6.2-2.4c-2.2-1.4-4.9-3.1-8.8-3.7V42.9H155.8z M44.2,64.6H25.6v-7.8h18.6
		V64.6z M33.7,77c-2.5,0-4-0.9-6.2-2.4c-0.6-0.4-1.2-0.8-1.9-1.2v-2.7h18.6v1.4c-1.7,0.7-3.1,1.6-4.3,2.4C37.7,76,36.2,77,33.7,77z
		 M44.2,50.6H25.6v-7.8h18.6V50.6z"/>
	<path class="st0" d="M84.7,146c0,1.3-1,2.3-2.3,2.3h-9.3c-1.3,0-2.3-1-2.3-2.3l0,0c0-1.3,1-2.3,2.3-2.3h9.3
		C83.6,143.6,84.7,144.7,84.7,146L84.7,146z"/>
	<path class="st0" d="M117.2,146c0,1.3-1,2.3-2.3,2.3h-9.3c-1.3,0-2.3-1-2.3-2.3l0,0c0-1.3,1-2.3,2.3-2.3h9.3
		C116.2,143.6,117.2,144.7,117.2,146L117.2,146z"/>
	<path class="st0" d="M84.7,94.8c0,1.3-1,2.3-2.3,2.3h-9.3c-1.3,0-2.3-1-2.3-2.3l0,0c0-1.3,1-2.3,2.3-2.3h9.3
		C83.6,92.5,84.7,93.5,84.7,94.8L84.7,94.8z"/>
	<path class="st0" d="M117.2,94.8c0,1.3-1,2.3-2.3,2.3h-9.3c-1.3,0-2.3-1-2.3-2.3l0,0c0-1.3,1-2.3,2.3-2.3h9.3
		C116.2,92.5,117.2,93.5,117.2,94.8L117.2,94.8z"/>
	<circle class="st0" cx="55.2" cy="101.8" r="3.1"/>
	<circle class="st0" cx="55.2" cy="139" r="3.1"/>
	<circle class="st0" cx="55.2" cy="126.6" r="3.1"/>
	<circle class="st0" cx="55.2" cy="114.2" r="3.1"/>
	<circle class="st0" cx="47.5" cy="108" r="3.1"/>
	<circle class="st0" cx="47.5" cy="120.4" r="3.1"/>
	<circle class="st0" cx="47.5" cy="132.8" r="3.1"/>
	<circle class="st0" cx="39.7" cy="101.8" r="3.1"/>
	<circle class="st0" cx="39.7" cy="114.2" r="3.1"/>
	<circle class="st0" cx="39.7" cy="126.6" r="3.1"/>
	<circle class="st0" cx="39.7" cy="139" r="3.1"/>
	<g>
		<circle class="st0" cx="32" cy="108" r="3.1"/>
		<circle class="st0" cx="32" cy="120.4" r="3.1"/>
		<circle class="st0" cx="32" cy="132.8" r="3.1"/>
		<circle class="st0" cx="24.2" cy="101.8" r="3.1"/>
		<circle class="st0" cx="24.2" cy="114.2" r="3.1"/>
		<circle class="st0" cx="24.2" cy="126.6" r="3.1"/>
		<circle class="st0" cx="24.2" cy="139" r="3.1"/>
	</g>
	<path class="st0" d="M111,126.6v4.7H76.9v-21.7H111v4.7h9.3v-4.7c0-5.1-4.2-9.3-9.3-9.3H76.9c-5.1,0-9.3,4.2-9.3,9.3v21.7
		c0,5.1,4.2,9.3,9.3,9.3H111c5.1,0,9.3-4.2,9.3-9.3v-4.7H111z"/>
	<g>
		<path class="st0" d="M156,117.3H97.1c-1.7,0-3.1,1.4-3.1,3.1s1.4,3.1,3.1,3.1H156V117.3z"/>
	</g>
</g>
</svg>
