<?xml version="1.0" encoding="utf-8"?>
<!-- Generator: Adobe Illustrator 22.0.0, SVG Export Plug-In . SVG Version: 6.00 Build 0)  -->
<svg version="1.1" id="Layer_1" xmlns="http://www.w3.org/2000/svg" xmlns:xlink="http://www.w3.org/1999/xlink" x="0px" y="0px"
	 viewBox="0 0 170 170" style="enable-background:new 0 0 170 170;" xml:space="preserve">
<style type="text/css">
	.st0{fill:#6269C4;}
</style>
<title>iconos</title>
<g>
	<path class="st0" d="M127.1,98.1c-22.4-1.3-33.1,2.4-42.7,5.5c-9.6,3.2-14.5,6.5-29.9,6.7C25,110.4,8.8,96.1,8.8,96.1
		c11.8,15,20.7,19.7,31,23.1c10.3,3.3,23.3,3.5,33.5,0.8c10.2-2.6,21.5-9,42.9-11.5s45,1.8,45,1.8S149.6,99.4,127.1,98.1z"/>
	<circle class="st0" cx="127.6" cy="68.2" r="17"/>
	<path class="st0" d="M42.2,76.7L42.2,76.7l0.2-0.1c0,0,0,0,0,0c0,0,0,0,0,0L69.1,63L78,78.2l-35.3,23c3.6,0.5,7.4,0.9,11.6,0.9h0.2
		c10.5-0.1,15-1.8,21.3-4.2c1.8-0.7,3.8-1.4,6-2.1l0.5-0.1c6.6-2.2,13.9-4.6,24.9-5.6L83.6,57.7l-4.3-6.1l0,0l0-0.1l0,0
		c-1.4-2.1-3.8-3.4-6.5-3.4c-1.2,0-2.4,0.3-3.4,0.8l0,0L36.5,66.1l0,0.1c-2.7,1.6-3.7,5.1-2.2,7.9C35.8,77,39.3,78.1,42.2,76.7z"/>
</g>
</svg>
