<?xml version="1.0" encoding="utf-8"?>
<!-- Generator: Adobe Illustrator 22.0.0, SVG Export Plug-In . SVG Version: 6.00 Build 0)  -->
<svg version="1.1" id="Layer_1" xmlns="http://www.w3.org/2000/svg" xmlns:xlink="http://www.w3.org/1999/xlink" x="0px" y="0px"
	 viewBox="0 0 170 170" style="enable-background:new 0 0 170 170;" xml:space="preserve">
<style type="text/css">
	.st0{fill:#6269C4;}
</style>
<title>iconos</title>
<path class="st0" d="M21.1,98.5l-3.5-34c-0.3-1.7,0.3-3.4,1.7-4.5c1.7-1.5,4.3-1.4,5.8,0.3c0,0,0.1,0.1,0.1,0.1
	c1.3,1.5,2,6.2,2.1,7.4c0.8,5,1.4,10.1,1.7,15.3v1c0.1,1.9,0.6,3.8,1.4,5.6c4.5,9.8,13.6,22.3,13.6,22.3l0.6,0.7
	c0.4,0.5,1.1,0.7,1.7,0.4c0.6-0.4,0.9-1.2,0.6-1.8l-12-19.6c-1.3-2.4-0.5-5.3,1.8-6.7c2.3-1.4,5.3-0.7,6.7,1.5l12.6,16.1
	c1,1.3,2.2,2.4,3.5,3.4C70.6,114,72,122.3,73,126.5c0.1,0.7,0.1,1.5,0.1,2.2l0,0c0,1.3-0.1,2.6-0.3,3.9l-0.7,13.6
	c0,1-0.8,1.8-1.8,1.8l-21.1-0.1c-1,0-1.8-0.8-1.8-1.8L47,134.9l-20.2-24.2c-3-2.9-5-6.8-5.6-10.9L21.1,98.5z M30.2,62.7
	c0.4,1.3,0.6,2.4,0.8,3.5c0.8,4.8,1.4,9.6,1.7,14.4v1.1c0.4-0.4,0.9-0.8,1.4-1c0.6-0.4,1.3-0.7,2-0.8c0-0.1,0.1-0.1,0.1-0.1
	c-0.6-4.6-1.5-9.1-2.7-13.6C33.1,64.5,31.8,63.2,30.2,62.7z M36.9,67.6c0.6,2.5,2,7.3,2.4,9.7l0.3,1.7v0.4c1,0.1,2.1,0.2,3.1,0.6
	c-0.3-2.2-1.8-6.9-2.4-9C39.7,69.3,38.5,68.1,36.9,67.6z M144.9,60.3c-1.3,1.5-2,6.2-2.1,7.4c-0.8,5.1-1.4,10.2-1.6,15.3v1
	c-0.1,1.9-0.6,3.8-1.4,5.6c-4.5,9.8-13.6,22.3-13.6,22.3l-0.6,0.8c-0.4,0.5-1.1,0.7-1.7,0.4c-0.6-0.4-0.9-1.2-0.6-1.8l12-19.6
	c1.3-2.4,0.5-5.3-1.8-6.7c-2.3-1.4-5.3-0.7-6.7,1.5l-12.6,16.1c-1,1.3-2.2,2.4-3.5,3.4c-11.3,8-12.7,16.3-13.7,20.5
	c-0.1,0.7-0.1,1.5-0.1,2.2l0,0c0,1.3,0.1,2.6,0.3,3.9l0.7,13.6c0,1,0.8,1.8,1.8,1.8l21.1-0.1c1,0,1.8-0.8,1.8-1.8l0.4-11.2
	l20.2-24.2c3-2.9,5-6.8,5.6-10.9l0.2-1.3l3.5-34c0.2-1.7-0.5-3.4-1.7-4.5c-1.6-1.5-4.2-1.5-5.8,0.2C145,60.2,145,60.3,144.9,60.3
	L144.9,60.3z M134,79.9L134,79.9c0.7,0.3,1.4,0.7,2,1c0.5,0.3,1,0.6,1.4,1v-1.2c0.3-4.8,0.8-9.6,1.6-14.4c0.1-1.2,0.4-2.4,0.8-3.5
	c-1.6,0.5-2.8,1.8-3.2,3.5C135.7,69.7,134.6,76.4,134,79.9z M130.5,78.9l0.3-1.7c0.3-2.5,1.8-7.1,2.4-9.7c-1.6,0.6-2.8,1.9-3.2,3.5
	c-0.6,2.1-2.1,6.7-2.4,9c1-0.4,2-0.6,3.1-0.6C130.5,79.3,130.5,79.2,130.5,78.9L130.5,78.9z M128.7,49.8l-4.5-5.5
	c-0.1-0.2-0.1-0.4,0-0.6l4.5-5.6c0.4-0.4,0-1.1-0.6-1.1h-18.5c-0.1,0.4-0.3,1-0.4,1.4v0.1l0.1,0.1c1.5,1.4,2.4,3.4,2.4,5.5
	c0,2.1-0.9,4.1-2.5,5.5l-0.1,0.1v0.1l0.4,1.3H128C128.7,51.1,129.1,50.2,128.7,49.8z M60.8,49.5L60.8,49.5v-0.1
	c-1.5-1.4-2.4-3.4-2.4-5.5c0-2.1,0.9-4.1,2.6-5.5l0.1-0.1v-0.1l-0.4-1.3H41.9c-0.6,0-1,0.7-0.6,1.1l4.5,5.5c0.1,0.2,0.1,0.4,0,0.6
	l-4.5,5.6c-0.4,0.4,0,1.1,0.6,1.1h18.5C60.6,50.4,60.7,50,60.8,49.5z M61,86.5l3.8-2.4l3.8,2.4c0.4,0.3,1,0.2,1.3-0.2
	C70,86,70,85.7,70,85.5l-1.1-4.3l3.6-3.1c0.4-0.4,0.4-1,0-1.4c-0.1-0.1-0.3-0.2-0.5-0.3l-4.5-0.3l-1.7-4.2c-0.1-0.5-0.6-0.7-1.1-0.6
	c-0.3,0.1-0.5,0.3-0.6,0.6l-1.7,4.2l-4.5,0.3c-0.8,0-1.1,1.1-0.6,1.7l3.5,2.9l-1.1,4.3c-0.2,0.4-0.1,1,0.4,1.2
	C60.4,86.7,60.7,86.7,61,86.5z M92,76.5l-4.5-0.3l-1.7-4.2c-0.1-0.5-0.6-0.7-1.1-0.6c-0.3,0.1-0.5,0.3-0.6,0.6l-1.7,4.2L78,76.5
	c-0.5,0.1-0.9,0.6-0.8,1.1c0,0.2,0.1,0.4,0.3,0.5l3.6,2.9l-1.1,4.3c-0.1,0.8,0.7,1.5,1.4,1l3.7-2.4l3.8,2.4c0.4,0.3,1,0.2,1.3-0.2
	c0.2-0.2,0.2-0.5,0.1-0.8l-1-4.5l3.5-2.9C93.3,77.7,92.9,76.5,92,76.5z M112.3,76.5l-4.5-0.3l-1.7-4.2c-0.1-0.5-0.6-0.7-1.1-0.6
	c-0.3,0.1-0.5,0.3-0.6,0.6l-1.7,4.2l-4.5,0.3c-0.5,0.1-0.9,0.6-0.8,1.1c0,0.2,0.1,0.4,0.3,0.5l3.5,2.9l-1.1,4.3
	c-0.1,0.8,0.7,1.5,1.4,1l3.8-2.4l3.8,2.4c0.4,0.3,1,0.2,1.3-0.2c0.2-0.2,0.2-0.5,0.1-0.8l-1.1-4.3l3.5-2.9c0.4-0.4,0.4-1,0-1.4
	C112.7,76.7,112.5,76.6,112.3,76.5L112.3,76.5z M71.2,103.1l3.8-2.4l3.8,2.4c0.4,0.3,1,0.2,1.3-0.2c0.2-0.2,0.2-0.5,0.1-0.8L79,97.8
	l3.5-2.9c0.4-0.4,0.4-1,0-1.4c-0.1-0.1-0.3-0.2-0.5-0.3l-4.5-0.3l-1.7-4.2c-0.1-0.5-0.6-0.7-1.1-0.6c-0.3,0.1-0.5,0.3-0.6,0.6
	l-1.7,4.2L68,93.2c-0.5,0.1-0.9,0.6-0.8,1.1c0,0.2,0.1,0.4,0.3,0.5l3.5,2.9l-1.1,4.3c-0.1,0.5,0.1,1,0.6,1.1
	C70.7,103.3,70.9,103.3,71.2,103.1z M102.1,93.2l-4.5-0.3l-1.7-4.2c-0.1-0.5-0.6-0.7-1.1-0.6c-0.3,0.1-0.5,0.3-0.6,0.6l-1.7,4.2
	l-4.5,0.3c-0.5,0.1-0.9,0.6-0.8,1.1c0,0.2,0.1,0.4,0.3,0.5l3.5,2.9l-1.1,4.3c-0.1,0.8,0.7,1.5,1.4,1l3.8-2.4l3.8,2.4
	c0.4,0.3,1,0.2,1.3-0.2c0.2-0.2,0.2-0.5,0.1-0.8l-1.1-4.3l3.5-2.9c0.4-0.3,0.5-0.9,0.2-1.3C102.7,93.3,102.4,93.2,102.1,93.2z
	 M64.4,41.1c1-0.8,1.3-2.2,0.7-3.4l-0.4-1.1c-0.6-1.5,0.1-3.2,1.5-3.8c0.1-0.1,0.3-0.1,0.5-0.1l1.1-0.3c1.2-0.3,2.1-1.4,2.1-2.7
	v-1.1c0.1-1.6,1.4-2.8,2.9-2.8h0.6l1.1,0.1h0.6c1.1,0,2.1-0.6,2.5-1.5l0.6-1c0.5-0.9,1.5-1.4,2.5-1.5c0.6,0,1.2,0.2,1.7,0.6l1,0.7
	c0.5,0.4,1.1,0.6,1.7,0.6c0.6,0,1.2-0.2,1.7-0.6l1-0.7c0.5-0.4,1-0.6,1.6-0.6c1.1,0,2,0.6,2.5,1.5l0.6,1c0.4,1.1,1.5,1.8,2.7,1.8
	h0.6l1.1-0.1h0.6c1.6,0,2.8,1.2,2.9,2.8v1.1c0,1.3,0.9,2.3,2.1,2.7l1.1,0.3c1.5,0.4,2.4,2,2,3.5c0,0.1-0.1,0.3-0.1,0.4l-0.4,1.1
	c-0.4,1.2-0.1,2.5,0.7,3.4l0.8,0.7c1.2,1.1,1.2,3,0.1,4.2c0,0-0.1,0.1-0.1,0.1l-0.8,0.7c-1,0.8-1.3,2.2-0.7,3.4l0.4,1.1
	c0.6,1.5-0.1,3.2-1.5,3.8c-0.1,0.1-0.3,0.1-0.5,0.1l-1.1,0.1c-1.2,0.3-2.1,1.4-2.1,2.7v1.1c-0.1,1.6-1.4,2.8-2.9,2.8h-0.6l-1.1-0.1
	H95c-1.1,0-2.1,0.6-2.5,1.5l-0.6,1c-0.5,0.9-1.5,1.5-2.5,1.5c-0.6,0-1.2-0.2-1.7-0.6l-1-0.7c-0.5-0.4-1.1-0.6-1.7-0.7
	c-0.6,0-1.2,0.2-1.7,0.6l-1,0.6c-0.5,0.4-1.1,0.6-1.7,0.6c-1.1,0-2-0.6-2.5-1.5l-0.6-1c-0.5-0.9-1.5-1.5-2.5-1.5h-0.6l-1.1,0.1h-0.6
	c-1.6,0-2.8-1.2-2.9-2.8v-1.1c0-1.3-0.9-2.3-2.1-2.7l-1.1-0.3c-1.5-0.4-2.4-2-2-3.5c0-0.1,0.1-0.3,0.1-0.4l0.4-1.1
	c0.4-1.2,0.1-2.5-0.7-3.4l-0.8-0.7c-1.2-1.1-1.2-3-0.1-4.2c0,0,0.1-0.1,0.1-0.1L64.4,41.1z M75.8,44.8l3.4,3.3l3.5,3.5l3.5-3.5
	l8.1-8.1l-3.5-3.5l-8.1,8.1l-3.4-3.4L75.8,44.8z"/>
</svg>
