<?xml version="1.0" encoding="utf-8"?>
<!-- Generator: Adobe Illustrator 22.0.0, SVG Export Plug-In . SVG Version: 6.00 Build 0)  -->
<svg version="1.1" id="Layer_1" xmlns="http://www.w3.org/2000/svg" xmlns:xlink="http://www.w3.org/1999/xlink" x="0px" y="0px"
	 viewBox="0 0 170 170" style="enable-background:new 0 0 170 170;" xml:space="preserve">
<style type="text/css">
	.st0{fill:#6269C4;}
</style>
<title>iconos</title>
<path class="st0" d="M55.4,33c-1,0.7-1.2,2-0.6,2.9c0.6,0.9,1.8,1.2,2.8,0.7l3.9-2.3c1-0.6,1.3-1.9,0.7-2.9c-0.6-1-1.9-1.3-2.9-0.7
	L55.4,33z"/>
<path class="st0" d="M41.9,33.5c0.3,0,0.6,0,0.9-0.2l4.1-1.9c1.1-0.5,1.5-1.7,1-2.8c-0.5-1.1-1.7-1.5-2.8-1l-4.1,1.9
	c-1,0.5-1.5,1.8-1,2.8C40.4,33,41.2,33.5,41.9,33.5L41.9,33.5z"/>
<path class="st0" d="M66.3,22.1c0.3,0,0.6-0.1,0.9-0.2l0.3-0.1h3.2c1.2,0,2.1-0.9,2.1-2.1c0-1.2-0.9-2.1-2.1-2.1h-3.6
	c-0.3,0-0.6,0.1-0.9,0.2l-0.8,0.4c-1,0.5-1.5,1.8-1,2.8C64.8,21.6,65.5,22,66.3,22.1L66.3,22.1z"/>
<path class="st0" d="M54.1,27.8c0.3,0,0.6-0.1,0.9-0.2l4.1-1.9c1-0.5,1.4-1.8,0.9-2.9c-0.5-1-1.7-1.4-2.7-1l-4.1,1.9
	c-1,0.5-1.5,1.8-1,2.8C52.6,27.3,53.3,27.7,54.1,27.8L54.1,27.8z"/>
<path class="st0" d="M29.7,39.2c0.3,0,0.6-0.1,0.9-0.2l4.1-1.9c1.1-0.4,1.7-1.6,1.3-2.7c-0.4-1.1-1.6-1.7-2.7-1.3
	c-0.1,0-0.2,0.1-0.2,0.1l-0.2,0.1l-4.1,1.9c-1,0.5-1.5,1.8-1,2.8C28.2,38.7,28.9,39.1,29.7,39.2L29.7,39.2z"/>
<path class="st0" d="M47.2,124.7l-0.2-0.1V43l2.6-1.6c1-0.5,1.4-1.8,0.9-2.8c-0.5-1-1.8-1.4-2.8-0.9c-0.1,0-0.2,0.1-0.2,0.1
	l-3.2,1.9H23.5c-0.6-0.9-1.8-1.3-2.8-0.9l-1.9,0.7c-0.8,0.2-1.4,1-1.3,1.9c0,0.1,0,0.3,0,0.4v86.5c0,1.2,0.9,2.1,2.1,2.1h0h25.3
	c0.2,0,0.3,0,0.5-0.1h0.1c0.1,0,0.2-0.1,0.3-0.1l0.1-0.1c0.1-0.1,0.2-0.1,0.3-0.2l0.1-0.1c0.1-0.1,0.2-0.2,0.3-0.4l0,0l1.1-1.8
	C48.5,126.7,48.2,125.4,47.2,124.7L47.2,124.7z"/>
<path class="st0" d="M69.5,89.7c-1-0.6-2.3-0.3-2.9,0.6c0,0,0,0,0,0l-2.5,3.9c-0.7,1-0.4,2.3,0.5,2.9c1,0.7,2.3,0.4,2.9-0.5
	c0,0,0.1-0.1,0.1-0.1l2.5-3.9C70.7,91.6,70.5,90.3,69.5,89.7z"/>
<path class="st0" d="M62,101.3c-1-0.6-2.3-0.3-2.9,0.6l-2.5,3.9c-0.7,0.9-0.5,2.3,0.5,3c0.9,0.7,2.3,0.5,3-0.5
	c0.1-0.1,0.1-0.2,0.2-0.2l2.5-3.9C63.3,103.3,63,102,62,101.3z"/>
<path class="st0" d="M75.1,84.8l2.5-3.9c0.7-0.9,0.5-2.3-0.4-3s-2.3-0.5-3,0.4l0,0c-0.1,0.1-0.1,0.2-0.2,0.3l-2.5,3.9
	c-0.6,1-0.2,2.3,0.8,2.9C73.3,85.9,74.5,85.7,75.1,84.8L75.1,84.8L75.1,84.8z"/>
<path class="st0" d="M54.6,113c-1-0.6-2.3-0.3-2.9,0.6c0,0,0,0,0,0l-2.5,3.9c-0.7,0.9-0.6,2.2,0.3,3s2.2,0.6,3-0.3
	c0.1-0.1,0.1-0.1,0.2-0.2c0.1-0.1,0.1-0.1,0.1-0.2l2.5-3.9C55.9,114.9,55.6,113.6,54.6,113z"/>
<path class="st0" d="M51.6,92.5l2.6-3.2c0.7-0.9,0.6-2.2-0.3-3c-0.9-0.7-2.2-0.6-3,0.3l0,0l-2.6,3.2c-0.7,0.9-0.6,2.2,0.3,3
	C49.5,93.6,50.8,93.4,51.6,92.5L51.6,92.5z"/>
<path class="st0" d="M57.8,83.6c0.6,0,1.2-0.3,1.6-0.8l2.6-3.2c0.7-0.9,0.6-2.2-0.3-3c-0.9-0.7-2.2-0.6-3,0.3l0,0l-2.6,3.2
	c-0.7,0.9-0.6,2.2,0.3,3C56.9,83.5,57.4,83.7,57.8,83.6L57.8,83.6z"/>
<path class="st0" d="M65.7,74c0.6,0,1.2-0.3,1.6-0.8l0.7-0.8h10.6c0.2,1.1,1.3,1.9,2.4,1.7c0.6-0.1,1.1-0.4,1.4-0.9l1.1-1.8
	c0-0.1,0-0.1,0.1-0.1c0.1-0.1,0.1-0.3,0.2-0.4v-0.2c0-0.1,0-0.2,0-0.3v-0.1V19.6c0-0.2,0-0.3-0.1-0.5l0,0c-0.1-0.2-0.1-0.4-0.3-0.5
	l-0.2-0.2c-0.1-0.1-0.2-0.2-0.3-0.3L83,17.9l-0.1-0.1l-0.2-0.1l-0.2-0.1c-0.2-0.1-0.4-0.1-0.6-0.1h-2.1c-1.2,0-2.1,0.9-2.1,2.1
	c0,0,0,0,0,0v0.1l-11.6,7c-0.6,0.4-1,1.1-1,1.8v41l-0.8,1.1c-0.8,0.9-0.6,2.2,0.3,3C64.8,73.8,65.3,74,65.7,74L65.7,74z"/>
<path class="st0" d="M96.6,68.1l26.2,16.5c0.6,0.4,1.5,0.4,2.1,0l26.4-15c0.7-0.4,1.1-1.1,1.1-1.9l0.2-31.6c0-0.7-0.4-1.4-1-1.8
	l-26.2-16.5c-0.6-0.4-1.5-0.4-2.1,0l-26.4,15c-0.6,0.4-1,1.1-1,1.9l-0.2,31.7C95.6,67.1,96,67.7,96.6,68.1z M121.9,66.3L110.1,59
	l0.1-13.8l11.8,7.2L121.9,66.3z M124.1,48.8l-11.9-7.3l11.8-6.6l11.9,7.3L124.1,48.8z M137.4,46.3L138,46l-0.1,13.9l-11.9,6.6
	l0.1-13.9L137.4,46.3z M148.2,66.6L126,79.2v-7.9l15-8.3c0.6-0.4,1-1.1,1-1.8l0.1-17.6l6.1-3.5L148.2,66.6z M124.2,22.1l22.4,14.2
	l-6.4,3.6l-14.9-9.2c-0.7-0.4-1.5-0.4-2.1,0l-15,8.3l-6.5-4L124.2,22.1z M99.9,38.9l6.1,3.7l-0.1,17.6c0,0.7,0.4,1.4,1,1.8l14.9,9.2
	V79l-22-13.9L99.9,38.9z"/>
<path class="st0" d="M150.4,123c1.2,0,2.1-0.9,2.1-2.1c0,0,0,0,0,0v-14.8c0-1.2-0.9-2.1-2.1-2.1l0,0h-25.3V91.3
	c0-1.2-0.9-2.1-2.1-2.1H97.7c-1.2,0-2.1,0.9-2.1,2.1l0,0V104H85c-1.2,0-2.1,0.9-2.1,2.1l0,0v12.7h-8.4c-1.2,0-2.1,0.9-2.1,2.1v14.8
	c0,1.2,0.9,2.1,2.1,2.1h8.4v12.6c0,1.2,0.9,2.1,2.1,2.1h65.4c1.2,0,2.1-0.9,2.1-2.1c0,0,0,0,0,0v-14.8c0-1.2-0.9-2.1-2.1-2.1
	c0,0,0,0,0,0h-10.5V123H150.4z M97.7,133.5H76.6V123h21.1V133.5z M134.6,108.2v10.6h-22.1v-10.6H134.6z M99.8,104V93.4h21.1V104
	H99.8z M128.3,148.3h-20v-10.6h20V148.3z M135.6,133.5h-14.8V123h14.8V133.5z"/>
</svg>
