<?xml version="1.0" encoding="utf-8"?>
<!-- Generator: Adobe Illustrator 16.0.0, SVG Export Plug-In . SVG Version: 6.00 Build 0)  -->
<!DOCTYPE svg PUBLIC "-//W3C//DTD SVG 1.1//EN" "http://www.w3.org/Graphics/SVG/1.1/DTD/svg11.dtd">
<svg version="1.1" id="Layer_1" xmlns="http://www.w3.org/2000/svg" xmlns:xlink="http://www.w3.org/1999/xlink" x="0px" y="0px"
	 width="1280px" height="325px" viewBox="0 235 1280 325" enable-background="new 0 235 1280 325" xml:space="preserve">
<g id="XMLID_529_">
	<g id="XMLID_6_">
		<g id="XMLID_3_">
			<rect id="XMLID_315_" x="176.747" y="487.163" fill="#FFFFFF" width="46.81" height="49.229"/>
			<rect id="XMLID_314_" x="483.43" y="487.163" fill="#FFFFFF" width="46.811" height="49.229"/>
			<rect id="XMLID_313_" x="299.42" y="487.163" fill="#FFFFFF" width="46.81" height="49.229"/>
			<rect id="XMLID_312_" x="238.083" y="487.163" fill="#FFFFFF" width="46.81" height="49.229"/>
			<rect id="XMLID_311_" x="360.757" y="487.163" fill="#FFFFFF" width="46.811" height="49.229"/>
			<rect id="XMLID_308_" x="115.41" y="487.163" fill="#FFFFFF" width="46.81" height="49.229"/>
			<rect id="XMLID_307_" x="422.094" y="487.163" fill="#FFFFFF" width="46.81" height="49.229"/>
			<rect id="XMLID_306_" x="544.767" y="487.163" fill="#FFFFFF" width="46.811" height="49.229"/>
			<rect id="XMLID_305_" x="606.104" y="487.163" fill="#FFFFFF" width="46.811" height="49.229"/>
			<rect id="XMLID_304_" x="667.44" y="487.163" fill="#FFFFFF" width="46.81" height="49.229"/>
			<path id="XMLID_300_" fill="#FFFFFF" d="M167.062,324.136c31.475,0,46.81,15.335,46.81,46.811s-15.334,46.811-46.81,46.811
				h-20.984v41.967h-31.476V324.136H167.062z M146.885,386.28h20.983c10.492,0,15.334-5.649,15.334-15.335
				s-5.649-15.334-15.334-15.334h-20.983V386.28z"/>
			<path id="XMLID_298_" fill="#FFFFFF" d="M255.838,324.136v135.587h-31.475V324.136H255.838z"/>
			<path id="XMLID_296_" fill="#FFFFFF" d="M269.559,459.723l-3.228-31.476h52.459c7.263,0,10.492-3.229,10.492-10.491
				c0-7.264-3.229-10.492-10.492-10.492h-10.492c-27.44,0-41.967-13.72-41.967-41.968c0-27.438,13.72-41.967,41.967-41.967h43.581
				l3.229,31.476h-46.81c-7.264,0-10.492,3.229-10.492,10.491c0,7.264,3.229,10.492,10.492,10.492h10.492
				c27.44,0,41.967,13.72,41.967,41.968c0,27.439-13.72,41.967-41.967,41.967H269.559L269.559,459.723z"/>
			<path id="XMLID_294_" fill="#FFFFFF" d="M438.234,428.247h15.334l-3.229,31.476h-12.105c-45.195,0-67.793-22.598-67.793-67.793
				c0-45.194,22.598-67.794,67.793-67.794h12.105l3.229,31.477h-15.334c-24.213,0-36.317,12.105-36.317,36.317
				S414.021,428.247,438.234,428.247z"/>
			<path id="XMLID_292_" fill="#FFFFFF" d="M495.536,324.136v135.587H464.06V324.136H495.536z"/>
			<path id="XMLID_290_" fill="#FFFFFF" d="M573.821,376.596c0-13.721-5.649-20.983-17.756-20.983
				c-12.105,0-18.563,7.264-18.563,20.983v83.127h-31.476v-83.127c0-34.704,16.947-52.46,50.038-52.46
				c32.281,0,49.229,16.949,49.229,52.46v83.127h-31.475v-83.127H573.821z"/>
			<path id="XMLID_279_" fill="#FFFFFF" d="M714.25,376.596v83.127h-31.476v-31.476h-36.318v31.476h-31.475v-83.127
				c0-34.704,16.947-52.46,50.036-52.46C698.108,324.136,714.25,341.892,714.25,376.596z M665.019,355.611
				c-12.104,0-18.563,7.264-18.563,20.983v20.983h36.318v-20.983C682.774,362.068,677.125,355.611,665.019,355.611z"/>
			<path id="XMLID_24_" fill="#FFFFFF" d="M727.97,459.723V324.136h31.477v104.111h52.459l-3.229,31.476H727.97L727.97,459.723z"/>
			<path id="XMLID_22_" fill="#FFFFFF" d="M853.064,324.136v135.587h-31.477V324.136H853.064z"/>
			<path id="XMLID_20_" fill="#FFFFFF" d="M865.979,459.723l-3.229-31.476h52.459c7.264,0,10.492-3.229,10.492-10.491
				c0-7.264-3.229-10.492-10.492-10.492h-11.299c-27.44,0-41.967-13.72-41.967-41.968c0-27.438,13.72-41.967,41.967-41.967h43.581
				l3.229,31.476h-46.81c-7.265,0-10.492,3.229-10.492,10.491c0,7.264,3.229,10.492,10.492,10.492h10.492
				c27.438,0,41.967,13.72,41.967,41.968c0,27.439-13.72,41.967-41.967,41.967H865.979L865.979,459.723z"/>
			<path id="XMLID_18_" fill="#FFFFFF" d="M1059.672,324.136v31.477h-31.476v104.11h-31.476V355.611h-31.476v-31.477
				L1059.672,324.136L1059.672,324.136z"/>
			<path id="XMLID_15_" fill="#FFFFFF" d="M1167.012,376.596v83.127h-31.476v-31.476h-36.317v31.476h-31.476v-83.127
				c0-34.704,16.948-52.46,50.037-52.46C1150.87,324.136,1167.012,341.892,1167.012,376.596z M1118.588,355.611
				c-12.105,0-18.563,7.264-18.563,20.983v20.983h36.316v-20.983C1136.343,362.068,1129.887,355.611,1118.588,355.611z"/>
			<polygon id="XMLID_4_" fill="#FFFFFF" points="40.353,261.992 40.353,520.252 100.883,520.252 100.883,503.304 57.301,503.304 
				57.301,278.134 1225.927,278.134 1225.927,503.304 727.97,503.304 727.97,520.252 1242.875,520.252 1242.875,261.992 			"/>
		</g>
	</g>
</g>
</svg>
