<?xml version="1.0" encoding="utf-8"?>
<!-- Generator: Adobe Illustrator 16.0.0, SVG Export Plug-In . SVG Version: 6.00 Build 0)  -->
<!DOCTYPE svg PUBLIC "-//W3C//DTD SVG 1.1//EN" "http://www.w3.org/Graphics/SVG/1.1/DTD/svg11.dtd">
<svg version="1.1" id="Capa_1" xmlns="http://www.w3.org/2000/svg" xmlns:xlink="http://www.w3.org/1999/xlink" x="0px" y="0px"
	 width="400px" height="123px" viewBox="0 0 400 123" enable-background="new 0 0 400 123" xml:space="preserve">
<g id="XMLID_529_">
	<g id="XMLID_6_">
		<g id="XMLID_3_">
			<rect id="XMLID_315_" x="52.25" y="81.125" fill="#0066AD" width="14.819" height="15.553"/>
			<rect id="XMLID_314_" x="149.82" y="81.125" fill="#0066AD" width="14.819" height="15.553"/>
			<rect id="XMLID_313_" x="91.278" y="81.125" fill="#0066AD" width="14.818" height="15.553"/>
			<rect id="XMLID_312_" x="71.764" y="81.125" fill="#001D7E" width="14.819" height="15.625"/>
			<rect id="XMLID_311_" x="110.792" y="81.125" fill="#001D7E" width="14.819" height="15.625"/>
			<rect id="XMLID_308_" x="32.81" y="81.125" fill="#009BDB" width="14.818" height="15.553"/>
			<rect id="XMLID_307_" x="130.306" y="81.125" fill="#009BDB" width="14.819" height="15.553"/>
			<rect id="XMLID_306_" x="169.261" y="81.125" fill="#009BDB" width="14.819" height="15.553"/>
			<rect id="XMLID_305_" x="188.775" y="81.125" fill="#001D7E" width="14.819" height="15.625"/>
			<rect id="XMLID_304_" x="208.29" y="81.125" fill="#009BDB" width="14.818" height="15.553"/>
			<path id="XMLID_300_" fill="#009BDB" d="M49.315,29.184c9.904,0,14.892,4.989,14.892,14.893c0,9.904-4.987,14.892-14.892,14.892
				h-6.603v13.278H32.81V29.184H49.315z M42.712,49.065h6.603c3.301,0,4.989-1.688,4.989-4.989c0-3.301-1.688-4.989-4.989-4.989
				h-6.603V49.065z"/>
			<path id="XMLID_298_" fill="#009BDB" d="M77.486,29.184v43.063h-9.904V29.184H77.486z"/>
			<path id="XMLID_296_" fill="#009BDB" d="M81.814,72.246l-1.028-9.902h16.58c2.202,0,3.302-1.101,3.302-3.302
				s-1.1-3.301-3.302-3.301h-3.301c-8.803,0-13.279-4.401-13.279-13.278c0-8.803,4.403-13.279,13.279-13.279h13.938l1.028,9.904
				H94.139c-2.201,0-3.301,1.1-3.301,3.301c0,2.202,1.101,3.302,3.301,3.302h3.301c8.804,0,13.279,4.401,13.279,13.277
				c0,8.803-4.401,13.278-13.279,13.278H81.814z"/>
			<path id="XMLID_294_" fill="#009BDB" d="M135.442,62.344h4.988l-1.027,9.902h-3.961c-14.379,0-21.495-7.189-21.495-21.494
				c0-14.379,7.189-21.495,21.495-21.495h3.961l1.027,9.904h-4.988c-7.704,0-11.592,3.889-11.592,11.591
				C123.85,58.456,127.665,62.344,135.442,62.344z"/>
			<path id="XMLID_292_" fill="#009BDB" d="M153.635,29.184v43.063h-9.903V29.184H153.635z"/>
			<path id="XMLID_290_" fill="#009BDB" d="M178.432,45.763c0-4.401-1.908-6.602-5.649-6.602c-3.962,0-5.943,2.201-5.943,6.602
				v26.483h-9.903V45.763c0-11.003,5.282-16.58,15.92-16.58c10.343,0,15.552,5.503,15.552,16.58v26.483h-9.903V45.763H178.432z"/>
			<path id="XMLID_279_" fill="#009BDB" d="M223.182,45.763v26.483h-9.904v-9.902h-11.591v9.902h-9.904V45.763
				c0-11.003,5.282-16.58,15.919-16.58C217.973,29.184,223.182,34.76,223.182,45.763z M207.557,39.161
				c-3.963,0-5.943,2.201-5.943,6.602v6.603h11.592v-6.603C213.205,41.362,211.37,39.161,207.557,39.161z"/>
			<path id="XMLID_24_" fill="#0066AD" d="M227.437,72.246V29.184h9.904V62.27h16.58l-1.028,9.904h-25.456V72.246z"/>
			<path id="XMLID_22_" fill="#0066AD" d="M267.199,29.184v43.063h-9.904V29.184H267.199z"/>
			<path id="XMLID_20_" fill="#0066AD" d="M271.16,72.246l-1.027-9.902h16.58c2.2,0,3.301-1.101,3.301-3.302
				s-1.101-3.301-3.301-3.301h-3.301c-8.804,0-13.279-4.401-13.279-13.278c0-8.803,4.401-13.279,13.279-13.279h13.938l1.026,9.904
				h-14.893c-2.2,0-3.301,1.1-3.301,3.301c0,2.202,1.101,3.302,3.301,3.302h3.302c8.803,0,13.278,4.401,13.278,13.277
				c0,8.803-4.401,13.278-13.278,13.278H271.16z"/>
			<path id="XMLID_18_" fill="#0066AD" d="M332.784,29.184v9.904h-9.904v33.158h-9.904V39.161h-9.902v-9.904h29.711V29.184z"/>
			<path id="XMLID_15_" fill="#0066AD" d="M366.97,45.763v26.483h-9.904v-9.902h-11.591v9.902h-9.903V45.763
				c0-11.003,5.281-16.58,15.919-16.58C361.762,29.184,366.97,34.76,366.97,45.763z M351.417,39.161
				c-3.961,0-5.942,2.201-5.942,6.602v6.603h11.591v-6.603C357.065,41.362,355.159,39.161,351.417,39.161z"/>
			<polygon id="XMLID_4_" fill="#009BDB" points="8.967,9.376 8.967,91.615 28.188,91.615 28.188,86.26 14.321,86.26 14.321,14.732 
				385.751,14.732 385.751,86.26 227.437,86.26 227.437,91.615 391.033,91.615 391.033,9.376 			"/>
		</g>
		<g id="XMLID_35_">
			<path id="XMLID_37_" fill="#0066AD" d="M33.763,106.213c0-0.807,0.147-1.541,0.367-2.127c0.22-0.588,0.514-1.027,0.953-1.32
				c0.367-0.293,0.807-0.514,1.248-0.588c0.44-0.146,0.881-0.146,1.395-0.146c0.806,0,1.613,0.146,2.42,0.441v1.1
				c-0.733-0.293-1.541-0.439-2.348-0.439c-0.954,0-1.687,0.221-2.127,0.734c-0.44,0.512-0.66,1.318-0.66,2.42
				c0,1.1,0.219,1.906,0.66,2.422c0.44,0.512,1.174,0.732,2.127,0.732c0.807,0,1.614-0.146,2.348-0.514v1.174
				c-0.807,0.293-1.614,0.441-2.42,0.441c-0.367,0-0.734,0-1.102-0.074c-0.367-0.074-0.66-0.221-1.026-0.367
				c-0.367-0.146-0.66-0.439-0.881-0.734c-0.22-0.293-0.439-0.732-0.586-1.246C33.836,107.535,33.763,106.875,33.763,106.213z"/>
			<path id="XMLID_39_" fill="#0066AD" d="M41.759,108.342c-0.221-0.588-0.367-1.322-0.367-2.129s0.146-1.541,0.367-2.127
				c0.22-0.588,0.513-1.027,0.953-1.32c0.367-0.293,0.807-0.514,1.248-0.588c0.44-0.146,0.881-0.146,1.394-0.146
				c0.514,0,0.954,0.074,1.395,0.146c0.439,0.074,0.806,0.295,1.247,0.588c0.367,0.293,0.733,0.732,0.954,1.32
				c0.22,0.586,0.367,1.32,0.367,2.127s-0.147,1.541-0.367,2.129c-0.221,0.586-0.514,1.025-0.954,1.32
				c-0.367,0.293-0.807,0.514-1.247,0.586c-0.44,0.074-0.881,0.146-1.395,0.146c-0.513,0-0.953-0.072-1.394-0.146
				c-0.44-0.146-0.807-0.293-1.248-0.586C42.272,109.367,41.979,108.928,41.759,108.342z M43.227,103.793
				c-0.44,0.514-0.66,1.32-0.66,2.42c0,1.102,0.22,1.908,0.66,2.422c0.44,0.514,1.1,0.732,2.053,0.732
				c0.955,0,1.614-0.219,2.055-0.732s0.66-1.32,0.66-2.422c0-1.1-0.22-1.906-0.66-2.42s-1.1-0.734-2.055-0.734
				C44.327,103.059,43.667,103.279,43.227,103.793z"/>
			<path id="XMLID_42_" fill="#0066AD" d="M51.076,110.395v-7.629c1.101-0.514,2.274-0.807,3.522-0.807
				c1.026,0,1.833,0.293,2.42,0.807c0.588,0.514,0.881,1.246,0.881,2.201v5.428h-1.174v-5.428c0-0.221,0-0.439-0.074-0.588
				c-0.073-0.146-0.146-0.367-0.293-0.586c-0.147-0.221-0.367-0.367-0.66-0.439c-0.293-0.148-0.733-0.148-1.174-0.148
				c-0.66,0-1.394,0.148-2.201,0.367v6.896h-1.248V110.395z"/>
			<path id="XMLID_44_" fill="#0066AD" d="M59.953,104.307c0-0.66,0.22-1.248,0.733-1.688c0.513-0.441,1.247-0.734,2.201-0.734
				c0.734,0,1.394,0.146,2.127,0.514v1.174c-0.66-0.367-1.32-0.586-1.981-0.586c-1.246,0-1.907,0.439-1.907,1.246
				c0,0.295,0.147,0.514,0.44,0.66c0.294,0.146,0.661,0.293,1.1,0.441c0.44,0.146,0.881,0.219,1.321,0.439
				c0.44,0.146,0.807,0.439,1.1,0.807c0.293,0.367,0.44,0.881,0.44,1.467c0,0.734-0.293,1.248-0.807,1.688
				c-0.514,0.441-1.248,0.588-2.201,0.588c-0.954,0-1.761-0.221-2.495-0.66v-1.248c0.807,0.514,1.614,0.732,2.421,0.732
				c1.248,0,1.908-0.365,1.908-1.172c0-0.439-0.147-0.734-0.44-0.955c-0.293-0.219-0.66-0.439-1.101-0.514
				c-0.44-0.145-0.88-0.219-1.321-0.365c-0.439-0.146-0.806-0.367-1.1-0.734C60.099,105.26,59.953,104.893,59.953,104.307z"/>
			<path id="XMLID_46_" fill="#0066AD" d="M66.702,103.205v-1.1h1.467v-2.348h1.174v2.348h2.127v1.1h-2.127v5.063
				c0,0.441,0.074,0.734,0.293,0.881c0.147,0.146,0.514,0.219,0.954,0.219c0.367,0,0.661-0.072,0.954-0.219v1.1
				c-0.367,0.146-0.733,0.221-1.027,0.221c0,0,0,0-0.074,0c-0.221,0-0.44,0-0.66-0.074c-0.221-0.072-0.44-0.146-0.734-0.293
				c-0.294-0.146-0.514-0.367-0.661-0.734c-0.146-0.365-0.219-0.732-0.219-1.246v-4.988h-1.467V103.205z"/>
			<path id="XMLID_48_" fill="#0066AD" d="M73.304,110.395v-7.629c1.248-0.514,2.567-0.807,4.036-0.807v1.1
				c-0.881,0-1.835,0.146-2.788,0.439v6.824h-1.248V110.395z"/>
			<path id="XMLID_50_" fill="#0066AD" d="M78.88,106.875v-4.77h1.173v4.842c0,0.807,0.147,1.467,0.514,1.834
				c0.367,0.367,0.953,0.586,1.687,0.586c0.807,0,1.321-0.219,1.688-0.586s0.587-1.027,0.587-1.834v-4.842h1.173v4.77
				c0,1.172-0.293,2.053-0.88,2.641c-0.587,0.66-1.467,0.953-2.568,0.953c-1.1,0-1.98-0.293-2.567-0.953
				C79.247,108.928,78.88,108.047,78.88,106.875z"/>
			<path id="XMLID_52_" fill="#0066AD" d="M87.83,106.213c0-0.807,0.146-1.541,0.367-2.127c0.219-0.588,0.513-1.027,0.953-1.32
				c0.367-0.293,0.807-0.514,1.247-0.588c0.44-0.146,0.881-0.146,1.394-0.146c0.807,0,1.614,0.146,2.421,0.441v1.1
				c-0.733-0.293-1.541-0.439-2.348-0.439c-0.953,0-1.687,0.221-2.127,0.734c-0.44,0.512-0.661,1.318-0.661,2.42
				c0,1.1,0.221,1.906,0.661,2.422c0.44,0.512,1.174,0.732,2.127,0.732c0.807,0,1.614-0.146,2.348-0.514v1.174
				c-0.807,0.293-1.614,0.441-2.421,0.441c-0.367,0-0.733,0-1.1-0.074s-0.66-0.221-1.027-0.367s-0.66-0.439-0.881-0.734
				c-0.219-0.293-0.44-0.732-0.586-1.246C87.904,107.535,87.83,106.875,87.83,106.213z"/>
			<path id="XMLID_54_" fill="#0066AD" d="M95.606,106.213c0-0.807,0.147-1.541,0.367-2.127c0.221-0.588,0.514-1.027,0.955-1.32
				c0.367-0.293,0.806-0.514,1.246-0.588c0.44-0.146,0.881-0.146,1.395-0.146c0.807,0,1.613,0.146,2.42,0.441v1.1
				c-0.733-0.293-1.541-0.439-2.348-0.439c-0.953,0-1.687,0.221-2.127,0.734c-0.44,0.512-0.66,1.318-0.66,2.42
				c0,1.1,0.22,1.906,0.66,2.422c0.44,0.512,1.174,0.732,2.127,0.732c0.807,0,1.614-0.146,2.348-0.514v1.174
				c-0.807,0.293-1.613,0.441-2.42,0.441c-0.367,0-0.734,0-1.101-0.074s-0.661-0.221-1.028-0.367
				c-0.367-0.219-0.66-0.439-0.879-0.734c-0.221-0.293-0.44-0.732-0.588-1.246C95.68,107.535,95.606,106.875,95.606,106.213z"/>
			<path id="XMLID_56_" fill="#0066AD" d="M103.822,100.639v-1.32h1.321v1.32H103.822z M103.896,110.395h1.174v-8.289h-1.174
				V110.395z"/>
			<path id="XMLID_59_" fill="#0066AD" d="M107.344,108.342c-0.22-0.588-0.367-1.322-0.367-2.129s0.147-1.541,0.367-2.127
				c0.219-0.588,0.514-1.027,0.953-1.32c0.368-0.293,0.807-0.514,1.248-0.588c0.44-0.072,0.88-0.146,1.395-0.146
				c0.513,0,0.953,0.074,1.394,0.146c0.44,0.074,0.807,0.295,1.247,0.588c0.367,0.293,0.734,0.732,0.954,1.32
				c0.219,0.586,0.367,1.32,0.367,2.127s-0.147,1.541-0.367,2.129c-0.22,0.586-0.514,1.025-0.954,1.32
				c-0.368,0.293-0.807,0.514-1.247,0.586c-0.44,0.074-0.881,0.146-1.394,0.146c-0.514,0-0.955-0.072-1.395-0.146
				c-0.44-0.072-0.807-0.293-1.248-0.586C107.931,109.367,107.563,108.928,107.344,108.342z M108.885,103.793
				c-0.44,0.514-0.66,1.32-0.66,2.42c0,1.102,0.22,1.908,0.66,2.422s1.1,0.732,2.055,0.732c0.953,0,1.613-0.219,2.053-0.732
				c0.44-0.514,0.66-1.32,0.66-2.422c0-1.1-0.22-1.906-0.66-2.42c-0.44-0.514-1.1-0.734-2.053-0.734
				C109.985,103.059,109.251,103.279,108.885,103.793z M110.499,101.004l0.953-1.906h1.248l-1.394,1.906H110.499z"/>
			<path id="XMLID_63_" fill="#0066AD" d="M116.955,110.395v-7.629c1.1-0.514,2.274-0.807,3.521-0.807
				c1.028,0,1.834,0.293,2.421,0.807c0.586,0.514,0.879,1.246,0.879,2.201v5.428h-1.173v-5.428c0-0.221,0-0.439-0.073-0.588
				c-0.074-0.146-0.147-0.367-0.293-0.586c-0.147-0.221-0.367-0.367-0.661-0.439c-0.293-0.148-0.733-0.148-1.174-0.148
				c-0.66,0-1.394,0.148-2.201,0.367v6.896h-1.246V110.395z"/>
			<path id="XMLID_65_" fill="#0066AD" d="M131.334,102.105h1.246l2.348,6.529l2.421-6.529h1.246l-3.375,9.096
				c-0.586,1.615-1.467,2.422-2.641,2.422c-0.293,0-0.513-0.072-0.807-0.146v-1.102c0.221,0.074,0.44,0.148,0.734,0.148
				c0.221,0,0.44-0.074,0.661-0.221c0.219-0.146,0.367-0.367,0.513-0.586c0.147-0.221,0.221-0.441,0.367-0.662
				c0.147-0.219,0.221-0.439,0.221-0.586l0.072-0.221L131.334,102.105z"/>
			<path id="XMLID_67_" fill="#0066AD" d="M145.125,103.205v-1.1h1.467v-2.348h1.174v2.348h2.127v1.1h-2.127v5.063
				c0,0.441,0.074,0.734,0.293,0.881c0.147,0.146,0.514,0.219,0.954,0.219c0.367,0,0.66-0.072,0.953-0.219v1.1
				c-0.367,0.146-0.733,0.221-1.026,0.221c0,0,0,0-0.074,0c-0.22,0-0.44,0-0.66-0.074c-0.221-0.072-0.44-0.146-0.733-0.293
				c-0.293-0.146-0.514-0.367-0.66-0.734c-0.147-0.365-0.221-0.732-0.221-1.246v-4.988h-1.467V103.205z"/>
			<path id="XMLID_69_" fill="#0066AD" d="M151.288,106.361C151.288,106.287,151.288,106.287,151.288,106.361
				c0-0.074,0-0.074,0-0.148c0-2.859,1.174-4.254,3.594-4.254c0.514,0,0.954,0.072,1.394,0.219c0.44,0.148,0.734,0.367,0.954,0.588
				s0.44,0.514,0.66,0.881c0.147,0.365,0.293,0.66,0.367,0.881c0.073,0.219,0.147,0.512,0.147,0.879
				c0.074,0.367,0.074,0.514,0.074,0.66v0.367v0.586h-6.016c0.072,0.809,0.293,1.469,0.733,1.834
				c0.439,0.367,1.101,0.588,1.906,0.588c1.174,0,2.128-0.221,2.862-0.588v1.248c-0.807,0.367-1.76,0.586-2.934,0.586
				c0,0,0,0-0.074,0c-0.514,0-0.954-0.072-1.321-0.145c-0.439-0.148-0.806-0.295-1.173-0.588s-0.661-0.734-0.881-1.32
				C151.434,107.828,151.288,107.168,151.288,106.361z M152.534,105.846h4.843c0-0.219,0-0.365-0.073-0.66
				c-0.074-0.219-0.147-0.514-0.293-0.879c-0.147-0.367-0.367-0.66-0.734-0.881c-0.367-0.221-0.806-0.367-1.32-0.367
				c-0.807,0-1.394,0.221-1.76,0.66C152.755,104.16,152.534,104.82,152.534,105.846z"/>
			<path id="XMLID_72_" fill="#0066AD" d="M160.678,110.395v-7.629c1.1-0.514,2.201-0.807,3.301-0.807
				c0.881,0,1.614,0.219,2.201,0.66c1.101-0.441,2.055-0.66,3.082-0.66s1.76,0.293,2.348,0.807c0.586,0.514,0.807,1.246,0.807,2.201
				v5.428h-1.174v-5.428c0-0.221,0-0.439-0.074-0.588c-0.074-0.146-0.147-0.367-0.293-0.586c-0.147-0.221-0.367-0.367-0.661-0.439
				c-0.293-0.148-0.66-0.148-1.101-0.148c-0.66,0-1.467,0.148-2.274,0.441c0.147,0.365,0.294,0.881,0.294,1.393v5.43h-1.174v-5.43
				c0-0.219,0-0.439-0.073-0.66c-0.074-0.146-0.147-0.367-0.293-0.586c-0.147-0.221-0.367-0.367-0.661-0.439
				c-0.293-0.148-0.66-0.148-1.1-0.148c-0.66,0-1.32,0.074-1.98,0.295v6.969h-1.174V110.395z"/>
			<path id="XMLID_74_" fill="#0066AD" d="M174.836,113.402v-8.875c0-0.221,0-0.441,0.074-0.66c0.073-0.221,0.219-0.514,0.44-0.809
				c0.22-0.293,0.586-0.586,1.027-0.807c0.514-0.221,1.101-0.293,1.834-0.293c0.294,0,0.587,0,0.881,0.072
				c0.293,0.074,0.586,0.146,0.953,0.367c0.367,0.221,0.661,0.439,0.88,0.734c0.221,0.293,0.44,0.734,0.66,1.246
				c0.147,0.514,0.221,1.174,0.221,1.908c0,0.807-0.147,1.541-0.367,2.127c-0.221,0.588-0.514,1.027-0.954,1.32
				c-0.367,0.293-0.808,0.514-1.174,0.588c-0.439,0.146-0.879,0.146-1.32,0.146c-0.66,0-1.394-0.074-2.055-0.293v3.227H174.836z
				 M176.01,108.928c0.66,0.293,1.321,0.439,2.055,0.439c0.879,0,1.541-0.219,1.98-0.732c0.44-0.514,0.587-1.248,0.587-2.348
				c0-0.66-0.074-1.248-0.221-1.76c-0.146-0.441-0.367-0.809-0.586-1.029c-0.293-0.219-0.514-0.365-0.733-0.439
				c-0.22-0.072-0.514-0.072-0.808-0.072c-1.467,0-2.2,0.512-2.2,1.467v4.475H176.01z"/>
			<path id="XMLID_77_" fill="#0066AD" d="M183.787,106.361C183.787,106.287,183.787,106.287,183.787,106.361
				c0-0.074,0-0.074,0-0.148c0-2.859,1.173-4.254,3.594-4.254c0.514,0,0.954,0.072,1.394,0.219c0.44,0.148,0.733,0.367,0.954,0.588
				c0.22,0.221,0.44,0.514,0.66,0.881c0.147,0.365,0.293,0.66,0.367,0.881c0.074,0.219,0.147,0.512,0.147,0.879
				c0.072,0.367,0.072,0.514,0.072,0.66v0.367v0.586h-6.016c0.074,0.809,0.294,1.469,0.733,1.834
				c0.44,0.367,1.101,0.588,1.908,0.588c1.174,0,2.128-0.221,2.862-0.588v1.248c-0.807,0.367-1.761,0.586-2.935,0.586
				c0,0,0,0-0.073,0c-0.514,0-0.955-0.072-1.321-0.145c-0.44-0.148-0.807-0.295-1.174-0.588s-0.66-0.734-0.879-1.32
				C183.86,107.828,183.787,107.168,183.787,106.361z M184.96,105.846h4.843c0-0.219,0-0.365-0.074-0.66
				c-0.073-0.219-0.147-0.514-0.293-0.879c-0.147-0.367-0.367-0.66-0.734-0.881c-0.367-0.221-0.807-0.367-1.321-0.367
				c-0.807,0-1.394,0.221-1.76,0.66C185.254,104.16,185.034,104.82,184.96,105.846z"/>
			<path id="XMLID_80_" fill="#0066AD" d="M193.03,110.395v-7.629c1.248-0.514,2.567-0.807,4.034-0.807v1.1
				c-0.879,0-1.833,0.146-2.787,0.439v6.824h-1.248V110.395z"/>
			<path id="XMLID_82_" fill="#0066AD" d="M198.165,107.828c0-0.367,0.074-0.734,0.221-1.027c0.147-0.295,0.293-0.514,0.514-0.734
				c0.22-0.146,0.439-0.365,0.734-0.439c0.293-0.146,0.586-0.221,0.806-0.293c0.221-0.074,0.514-0.074,0.881-0.148
				c0.293,0,0.586-0.072,0.733-0.072s0.293,0,0.514,0l1.32,0.072c0-0.732-0.22-1.318-0.587-1.613
				c-0.44-0.293-1.026-0.514-1.834-0.514c-0.881,0-1.688,0.146-2.421,0.367v-1.174c0.807-0.293,1.614-0.439,2.494-0.439
				c1.174,0,2.054,0.293,2.642,0.881c0.586,0.586,0.88,1.467,0.88,2.566v2.494c0,0.514-0.146,0.955-0.367,1.32
				c-0.22,0.367-0.586,0.66-0.953,0.809c-0.366,0.145-0.733,0.293-1.101,0.365c-0.366,0.074-0.661,0.074-1.027,0.074
				c-0.22,0-0.513,0-0.808-0.074c-0.293,0-0.586-0.072-0.879-0.221c-0.367-0.145-0.66-0.293-0.88-0.439
				c-0.22-0.146-0.44-0.439-0.66-0.807C198.239,108.635,198.165,108.268,198.165,107.828z M199.339,107.828
				c0,1.025,0.733,1.539,2.274,1.539l0,0c1.467,0,2.201-0.514,2.201-1.467v-1.613c-0.366-0.074-0.88-0.074-1.468-0.074
				C200.367,106.213,199.339,106.727,199.339,107.828z"/>
			<path id="XMLID_86_" fill="#0066AD" d="M206.896,106.141c0-0.807,0.146-1.541,0.366-2.129c0.221-0.586,0.514-1.025,0.954-1.318
				c0.367-0.295,0.808-0.516,1.175-0.588c0.439-0.146,0.879-0.146,1.319-0.146c0.733,0,1.394,0.072,2.055,0.293v-3.375h1.174v8.951
				c0,0.219,0,0.439-0.073,0.66c-0.074,0.221-0.221,0.514-0.44,0.807s-0.587,0.588-1.027,0.807c-0.514,0.221-1.1,0.293-1.833,0.293
				c-0.295,0-0.588,0-0.881-0.072c-0.293-0.074-0.587-0.146-0.954-0.367s-0.66-0.439-0.88-0.734
				c-0.221-0.293-0.44-0.732-0.661-1.246C206.969,107.461,206.896,106.875,206.896,106.141z M208.069,106.141
				c0,0.66,0.073,1.246,0.221,1.76c0.146,0.441,0.366,0.809,0.586,1.027c0.294,0.221,0.515,0.367,0.733,0.439
				c0.221,0.074,0.515,0.074,0.808,0.074c1.467,0,2.2-0.514,2.2-1.467V103.5c-0.659-0.295-1.394-0.441-2.053-0.441
				c-0.881,0-1.541,0.221-1.981,0.734C208.29,104.232,208.069,105.039,208.069,106.141z"/>
			<path id="XMLID_90_" fill="#0066AD" d="M216.14,108.342c-0.221-0.588-0.367-1.322-0.367-2.129s0.146-1.541,0.367-2.127
				c0.22-0.588,0.513-1.027,0.953-1.32c0.366-0.293,0.807-0.514,1.247-0.588c0.44-0.146,0.881-0.146,1.394-0.146
				c0.514,0,0.954,0.074,1.395,0.146c0.439,0.148,0.806,0.295,1.246,0.588c0.367,0.293,0.734,0.732,0.955,1.32
				c0.22,0.586,0.366,1.32,0.366,2.127s-0.146,1.541-0.366,2.129c-0.221,0.586-0.515,1.025-0.955,1.32
				c-0.366,0.293-0.807,0.514-1.246,0.586c-0.44,0.146-0.881,0.146-1.395,0.146c-0.513,0-0.953-0.072-1.394-0.146
				c-0.44-0.146-0.807-0.293-1.247-0.586C216.726,109.367,216.359,108.928,216.14,108.342z M217.68,103.793
				c-0.44,0.514-0.661,1.32-0.661,2.42c0,1.102,0.221,1.908,0.661,2.422s1.101,0.732,2.054,0.732c0.954,0,1.614-0.219,2.055-0.732
				s0.66-1.32,0.66-2.422c0-1.1-0.22-1.906-0.66-2.42s-1.101-0.734-2.055-0.734C218.78,103.059,218.047,103.279,217.68,103.793z"/>
		</g>
	</g>
</g>
</svg>
